<?xml version="1.0" encoding="UTF-8"?>
<svg width="800px" height="200px" viewBox="0 0 800 200" version="1.1" xmlns="http://www.w3.org/2000/svg">
    <title>DreamCanvas AI Banner</title>
    <defs>
        <linearGradient x1="0%" y1="0%" x2="100%" y2="100%" id="gradient">
            <stop stop-color="#6366F1" offset="0%"></stop>
            <stop stop-color="#4F46E5" offset="100%"></stop>
        </linearGradient>
    </defs>
    <g stroke="none" stroke-width="1" fill="none" fill-rule="evenodd">
        <rect fill="url(#gradient)" x="0" y="0" width="800" height="200" rx="10"></rect>
        <g transform="translate(50, 50)">
            <circle fill="#FFFFFF" cx="50" cy="50" r="50"></circle>
            <path d="M75,37.5 C75,27.1447 66.6053,18.75 56.25,18.75 C47.6205,18.75 40.3526,24.2839 38.1244,32 C36.7172,31.5126 35.1971,31.25 33.6174,31.25 C25.4079,31.25 18.75,37.9079 18.75,46.1174 C18.75,54.3269 25.4079,61.0099 33.6174,61.0099 L72.6326,61.0099 C80.8421,61.0099 87.5,54.3269 87.5,46.1174 C87.5,37.9079 80.8421,31.25 72.6326,31.25 C71.0529,31.25 69.5328,31.5126 68.1256,32 C67.6868,33.7803 66.9918,35.4621 66.1489,37.0096 C66.9997,36.4121 68.0739,36.0795 69.1919,36.0795 C72.4117,36.0795 75,38.6678 75,41.8876 C75,45.1074 72.4117,47.6957 69.1919,47.6957 C65.9721,47.6957 63.3838,45.1074 63.3838,41.8876 C63.3838,40.7696 63.7164,39.6954 64.3139,38.8446 C61.2193,40.8931 59,44.0203 59,47.6957 C59,54.1352 64.0877,59.375 70.5174,59.375 C76.9471,59.375 82.0348,54.1352 82.0348,47.6957 C82.0348,41.2562 76.9471,36.0164 70.5174,36.0164 C70.5174,36.0164 70.5174,36.0164 70.5174,36.0164 C73.2349,36.0164 75.4419,33.8094 75.4419,31.0919 C75.4419,28.3744 73.2349,26.1674 70.5174,26.1674 C67.7999,26.1674 65.5929,28.3744 65.5929,31.0919 C65.5929,31.0919 65.5929,31.0919 65.5929,31.0919 C59.1632,31.0919 54.0755,36.3317 54.0755,42.7712 C54.0755,49.2107 59.1632,54.4505 65.5929,54.4505 C72.0226,54.4505 77.1103,49.2107 77.1103,42.7712 C77.1103,39.0958 74.891,35.9686 71.7964,33.9201 C72.3939,34.7709 72.7265,35.8451 72.7265,36.9631 C72.7265,40.1829 70.1382,42.7712 66.9184,42.7712 C63.6986,42.7712 61.1103,40.1829 61.1103,36.9631 C61.1103,33.7433 63.6986,31.155 66.9184,31.155 C68.0364,31.155 69.1106,31.4876 69.9614,32.0851 C68.4139,31.2422 66.7321,30.5472 64.9518,30.1084 C64.4644,28.7012 64.2018,27.1811 64.2018,25.6014 C64.2018,17.3919 70.8597,10.7339 79.0692,10.7339 C87.2787,10.7339 93.9367,17.3919 93.9367,25.6014 C93.9367,33.8109 87.2787,40.4689 79.0692,40.4689 L40.0539,40.4689 C31.8444,40.4689 25.1865,33.8109 25.1865,25.6014 C25.1865,17.3919 31.8444,10.7339 40.0539,10.7339 C41.6336,10.7339 43.1537,10.9965 44.5609,11.4839 C46.7891,19.2 54.057,24.7339 62.6865,24.7339 C71.316,24.7339 78.5839,19.2 80.8121,11.4839 C82.2193,10.9965 83.7394,10.7339 85.3191,10.7339 C93.5286,10.7339 100.1865,17.3919 100.1865,25.6014 C100.1865,33.8109 93.5286,40.4689 85.3191,40.4689 L46.3039,40.4689 C38.0944,40.4689 31.4365,33.8109 31.4365,25.6014" fill="#6366F1"></path>
        </g>
        <text font-family="Arial, sans-serif" font-size="60" font-weight="bold" fill="#FFFFFF" x="200" y="100">
            DreamCanvas AI
        </text>
        <text font-family="Arial, sans-serif" font-size="24" fill="#FFFFFF" x="200" y="140">
            Transform your ideas into stunning images
        </text>
    </g>
</svg>
