<?xml version="1.0" encoding="UTF-8"?>
<svg width="32px" height="32px" viewBox="0 0 32 32" version="1.1" xmlns="http://www.w3.org/2000/svg">
    <title>DreamCanvas AI</title>
    <g stroke="none" stroke-width="1" fill="none" fill-rule="evenodd">
        <circle fill="#6366F1" cx="16" cy="16" r="16"></circle>
        <path d="M24,12 C24,8.6862915 21.3137085,6 18,6 C15.2385763,6 12.9128304,7.77085093 12.1998243,10.2398508 C11.7495172,10.0840337 11.2630542,10 10.7575758,10 C8.1305169,10 6,12.1305169 6,14.7575758 C6,17.3846346 8.1305169,19.5151515 10.7575758,19.5151515 L23.2424242,19.5151515 C25.8694831,19.5151515 28,17.3846346 28,14.7575758 C28,12.1305169 25.8694831,10 23.2424242,10 C22.7369458,10 22.2504828,10.0840337 21.8001757,10.2398508 C21.6596143,10.8096854 21.4453926,11.3478854 21.1676497,11.8430707 C21.4499042,11.6518783 21.7836526,11.5454545 22.1414141,11.5454545 C23.1717384,11.5454545 24,12.3737161 24,13.4040404 C24,14.4343648 23.1717384,15.2626263 22.1414141,15.2626263 C21.1110897,15.2626263 20.2828283,14.4343648 20.2828283,13.4040404 C20.2828283,13.0462789 20.3892521,12.7125305 20.5804444,12.430276 C19.5901734,13.0857709 18.8383838,14.0865092 18.8383838,15.2626263 C18.8383838,17.3232749 20.5080655,19 22.5656566,19 C24.6232476,19 26.2929293,17.3232749 26.2929293,15.2626263 C26.2929293,13.2019777 24.6232476,11.5252525 22.5656566,11.5252525 C22.5656566,11.5252525 22.5656566,11.5252525 22.5656566,11.5252525 C23.4351771,11.5252525 24.1414141,10.8190155 24.1414141,9.94949495 C24.1414141,9.07997442 23.4351771,8.37373737 22.5656566,8.37373737 C21.696136,8.37373737 20.989899,9.07997442 20.989899,9.94949495 C20.989899,9.94949495 20.989899,9.94949495 20.989899,9.94949495 C18.9323079,9.94949495 17.2626263,11.6262201 17.2626263,13.6868687 C17.2626263,15.7475173 18.9323079,17.4242424 20.989899,17.4242424 C23.04749,17.4242424 24.7171717,15.7475173 24.7171717,13.6868687 C24.7171717,12.5107516 23.9653821,11.5100133 22.9751111,10.8545184 C23.1663034,11.1367729 23.2727273,11.4705213 23.2727273,11.8282828 C23.2727273,12.8586072 22.4444657,13.6868687 21.4141414,13.6868687 C20.383817,13.6868687 19.5555556,12.8586072 19.5555556,11.8282828 C19.5555556,10.7979585 20.383817,9.96969697 21.4141414,9.96969697 C21.7719029,9.96969697 22.1056513,10.0761208 22.3879058,10.2673131 C21.8927205,9.98957022 21.3545205,9.77534852 20.7846859,9.63478711 C20.6288688,9.18448001 20.5448352,8.69801701 20.5448352,8.19243861 C20.5448352,5.56538 22.6753521,3.43486312 25.3024109,3.43486312 C27.9294698,3.43486312 30.0599867,5.56538 30.0599867,8.19243861 C30.0599867,10.8194972 27.9294698,12.9500141 25.3024109,12.9500141 L12.8175625,12.9500141 C10.1905037,12.9500141 8.05998674,10.8194972 8.05998674,8.19243861 C8.05998674,5.56538 10.1905037,3.43486312 12.8175625,3.43486312 C13.3231409,3.43486312 13.8096039,3.51889683 14.2599109,3.67471393 C14.9729171,6.14371381 17.298263,7.91456474 20.0596867,7.91456474 C22.8211104,7.91456474 25.1464563,6.14371381 25.8594624,3.67471393 C26.3097695,3.51889683 26.7962325,3.43486312 27.3018109,3.43486312 C29.9288697,3.43486312 32.0593867,5.56538 32.0593867,8.19243861 C32.0593867,10.8194972 29.9288697,12.9500141 27.3018109,12.9500141 L14.8169625,12.9500141 C12.1899037,12.9500141 10.0593867,10.8194972 10.0593867,8.19243861" fill="#FFFFFF"></path>
    </g>
</svg>
