<?xml version="1.0" encoding="UTF-8"?>
<svg width="600px" height="400px" viewBox="0 0 600 400" version="1.1" xmlns="http://www.w3.org/2000/svg">
    <title>Screenshot Placeholder</title>
    <defs>
        <linearGradient x1="0%" y1="0%" x2="100%" y2="100%" id="gradient">
            <stop stop-color="#6366F1" offset="0%"></stop>
            <stop stop-color="#4F46E5" offset="100%"></stop>
        </linearGradient>
    </defs>
    <g stroke="none" stroke-width="1" fill="none" fill-rule="evenodd">
        <rect fill="#F8FAFC" x="0" y="0" width="600" height="400" rx="10"></rect>
        <rect fill="url(#gradient)" x="50" y="50" width="500" height="300" rx="8"></rect>
        <text font-family="Arial, sans-serif" font-size="24" font-weight="bold" fill="#FFFFFF" text-anchor="middle" x="300" y="180">
            DreamCanvas AI
        </text>
        <text font-family="Arial, sans-serif" font-size="16" fill="#FFFFFF" text-anchor="middle" x="300" y="220">
            Add your screenshot here
        </text>
        <g transform="translate(275, 240)">
            <circle fill="#FFFFFF" cx="25" cy="25" r="25"></circle>
            <path d="M37.5,18.75 C37.5,13.5724 33.3026,9.375 28.125,9.375 C23.8103,9.375 20.1763,12.142 19.0622,16 C18.3586,15.7563 17.5985,15.625 16.8087,15.625 C12.704,15.625 9.375,18.954 9.375,23.0587 C9.375,27.1635 12.704,30.5049 16.8087,30.5049 L36.3163,30.5049 C40.4211,30.5049 43.75,27.1635 43.75,23.0587 C43.75,18.954 40.4211,15.625 36.3163,15.625 C35.5265,15.625 34.7664,15.7563 34.0628,16 C33.8434,16.8901 33.4959,17.7311 33.0745,18.5048 C33.4998,18.2061 34.037,18.0398 34.596,18.0398 C36.2059,18.0398 37.5,19.3339 37.5,20.9438 C37.5,22.5537 36.2059,23.8479 34.596,23.8479 C32.9861,23.8479 31.6919,22.5537 31.6919,20.9438 C31.6919,20.3848 31.8582,19.8477 32.1569,19.4223 C30.6096,20.4465 29.5,22.0102 29.5,23.8479 C29.5,27.0676 32.0439,29.6875 35.2587,29.6875 C38.4736,29.6875 41.0174,27.0676 41.0174,23.8479 C41.0174,20.6281 38.4736,18.0082 35.2587,18.0082 C35.2587,18.0082 35.2587,18.0082 35.2587,18.0082 C36.6175,18.0082 37.7209,16.9047 37.7209,15.546 C37.7209,14.1872 36.6175,13.0837 35.2587,13.0837 C33.9,13.0837 32.7965,14.1872 32.7965,15.546 C32.7965,15.546 32.7965,15.546 32.7965,15.546 C29.5816,15.546 27.0378,18.1659 27.0378,21.3856 C27.0378,24.6054 29.5816,27.2253 32.7965,27.2253 C36.0113,27.2253 38.5552,24.6054 38.5552,21.3856 C38.5552,19.5479 37.4455,17.9843 35.8982,16.9601 C36.1969,17.3855 36.3633,17.9226 36.3633,18.4816 C36.3633,20.0915 35.0691,21.3856 33.4592,21.3856 C31.8493,21.3856 30.5552,20.0915 30.5552,18.4816 C30.5552,16.8717 31.8493,15.5775 33.4592,15.5775 C34.0182,15.5775 34.5553,15.7438 34.9807,16.0425 C34.207,15.6211 33.366,15.2736 32.4759,15.0542 C32.2322,14.3506 32.1009,13.5906 32.1009,12.8007 C32.1009,8.696 35.4299,5.367 39.5346,5.367 C43.6394,5.367 46.9683,8.696 46.9683,12.8007 C46.9683,16.9055 43.6394,20.2345 39.5346,20.2345 L20.027,20.2345 C15.9222,20.2345 12.5932,16.9055 12.5932,12.8007 C12.5932,8.696 15.9222,5.367 20.027,5.367 C20.8168,5.367 21.5769,5.4983 22.2805,5.742 C23.3946,9.6 27.0285,12.367 31.3433,12.367 C35.658,12.367 39.292,9.6 40.4061,5.742 C41.1097,5.4983 41.8697,5.367 42.6596,5.367 C46.7643,5.367 50.0933,8.696 50.0933,12.8007 C50.0933,16.9055 46.7643,20.2345 42.6596,20.2345 L23.152,20.2345" fill="#6366F1"></path>
        </g>
    </g>
</svg>
